<svg width="74" height="74" viewBox="0 0 74 74" fill="none" xmlns="http://www.w3.org/2000/svg">
<path fill-rule="evenodd" clip-rule="evenodd" d="M38 2H54V18H38V2ZM38 0H54H56H74V18V20V36V38V54V56V74H56H54H38H36H20H18H0V56V54V38V36V20V18V0H18H20H36H38ZM72 20V36H56V20H72ZM54 20V36H38V20H54ZM38 38V54H54V38H38ZM36 56H20V72H36V56ZM18 54V38H2V54H18ZM18 36H2V20H18V36ZM18 56H2V72H18V56ZM38 56H54V72H38V56ZM36 36V20H20V36H36ZM56 38H72V54H56V38ZM36 2H20V18H36V2ZM72 2V18H56V2H72ZM20 38H36V54H20V38Z" fill="black"/>
</svg>
