<svg width="74" height="74" viewBox="0 0 74 74" fill="none" xmlns="http://www.w3.org/2000/svg">
	<path fill-rule="evenodd" clip-rule="evenodd"
		d="M 25.3 2 H 36 V 18 H 25.3 V 2 Z M 25.3 0 H 36 H 37.3 H 49.3 V 18 V 20 V 36 V 38 V 54 V 56 V 74 H 37.3 H 36 H 25.3 H 24 H 13.3 H 12 H 0 V 56 V 54 V 38 V 36 V 20 V 18 V 0 H 12 H 13.3 H 24 H 25.3 Z M 48 20 V 36 H 37.3 V 20 H 48 Z M 36 20 V 36 H 25.3 V 20 H 36 Z M 25.3 38 V 54 H 36 V 38 H 25.3 Z M 24 56 H 13.3 V 72 H 24 V 56 Z M 12 54 V 38 H 1.3 V 54 H 12 Z M 12 36 H 1.3 V 20 H 12 V 36 Z M 12 56 H 1.3 V 72 H 12 V 56 Z M 25.3 56 H 36 V 72 H 25.3 V 56 Z M 24 36 V 20 H 13.3 V 36 H 24 Z M 37.3 38 H 48 V 54 H 37.3 V 38 Z M 24 2 H 13.3 V 18 H 24 V 2 Z M 48 2 V 18 H 37.3 V 2 H 48 Z M 13.3 38 H 24 V 54 H 13.3 V 38 Z"
		fill="currentColor" />
</svg>
